<svg xmlns="http://www.w3.org/2000/svg" id="Layer_2" data-name="Layer 2" viewBox="0 0 140.31 36.17"><g id="Calque_1" data-name="Calque 1"><g><path d="m17.83,35.45h-9.09v-.67h1.93V5.13H3.81c-2.02,0-3.05.72-3.14,4.17v.49h-.67l.27-5.47h26.07l.18,5.47h-.67v-.54c0-3.09-1.07-4.12-2.96-4.12h-6.99v29.65h1.93v.67Z" fill="#040603"></path><path d="m57.57,35.45h-8.78v-.67h1.88v-15.45h-13.75v15.45h1.93v.67h-8.82v-.67h1.93V4.99h-1.93v-.67h8.82v.67h-1.93v13.53h13.75V4.99h-1.88v-.67h8.78v.67h-1.88v29.79h1.88v.67Z" fill="#040603"></path><path d="m140.31,35.45h-9.18v-.67h1.88V14.53c0-3.85-.36-9.99-5.42-9.99-5.33,0-7.7,4.61-7.7,9.5v20.74h1.93v.67h-9.14v-.67h1.93V13.73c0-3.9-.85-9.41-5.6-9.41-4.48,0-7.57,4.03-7.57,8.42v22.04h1.93v.67h-9.23v-.67h1.93V4.99h-1.93v-.67h7.3v4.75c1.25-3.27,4.08-5.55,7.79-5.55,4.93,0,9.18,2.87,10.26,7.57.72-4.52,4.21-7.35,8.2-7.35,7.21,0,10.71,4.17,10.71,11.38v19.67h1.93v.67Z" fill="#040603"></path><path d="m85.45,7.08l-2.46,3.03c.43,1.81.57,3.94.57,6.25v7.75c0,5.42-.9,11.38-7.75,11.38s-7.66-5.91-7.66-10.39v-8.73c0-2.34.11-4.49.51-6.32l-2.4-2.96c-2.93,2.94-4.2,7.46-4.2,12.59,0,9.23,4.17,16.48,13.75,16.48s13.84-7.66,13.84-16.48c0-5.16-1.27-9.67-4.2-12.6Z" fill="#040603"></path><path d="m80.63.64l2.27,3.64-7.06,5.78-7.05-5.78,2.27-3.64h9.56m.36-.64h-10.28l-2.7,4.33h0s7.84,9.74,7.84,9.74l7.84-9.74h0s-2.7-4.33-2.7-4.33h0Z" fill="#040603"></path></g></g></svg>